<?xml version="1.0" standalone="no"?>
<!DOCTYPE svg PUBLIC "-//W3C//DTD SVG 20010904//EN"
 "http://www.w3.org/TR/2001/REC-SVG-20010904/DTD/svg10.dtd">
<svg version="1.0" xmlns="http://www.w3.org/2000/svg"
 width="420.000000pt" height="420.000000pt" viewBox="0 0 420.000000 420.000000"
 preserveAspectRatio="xMidYMid meet">
<metadata>
Created by potrace 1.14, written by Peter Selinger 2001-2017
</metadata>
<g transform="translate(0.000000,420.000000) scale(0.100000,-0.100000)"
fill="#000000" stroke="none">
<path d="M1934 4189 c-935 -72 -1704 -752 -1888 -1671 -109 -540 -1 -1108 298
-1567 103 -158 256 -337 256 -299 0 9 6 23 14 31 16 15 27 69 31 142 1 28 6
58 10 69 5 11 3 21 -6 27 -11 6 -11 14 -3 37 8 22 8 33 -2 46 -8 11 -11 35 -8
64 3 26 7 81 8 123 2 42 6 82 10 88 4 7 3 17 -2 24 -5 7 -12 46 -15 87 -6 73
-6 74 8 36 16 -46 35 -69 35 -43 0 9 7 17 15 17 20 0 19 27 0 38 -10 5 -13 15
-9 25 7 19 34 23 34 6 0 -7 8 -18 17 -25 17 -13 17 -13 1 -14 -19 0 -26 -20
-8 -20 12 0 9 -22 -5 -32 -6 -5 -5 -11 4 -17 7 -5 11 -13 7 -19 -4 -7 8 -11
34 -10 23 0 44 -2 47 -6 4 -3 -6 -6 -20 -6 -31 0 -30 2 -16 -56 11 -44 22 -54
35 -32 4 6 3 8 -3 5 -6 -4 -13 6 -15 23 -4 29 5 40 17 20 3 -5 17 -10 30 -10
13 0 26 -6 28 -12 4 -10 6 -10 6 -1 1 7 -8 18 -19 25 -13 9 -18 19 -14 35 5
17 2 23 -10 23 -9 0 -16 5 -16 10 0 6 7 10 15 10 8 0 15 -4 15 -10 0 -5 7 -10
16 -10 10 0 14 -5 10 -16 -3 -8 -2 -13 3 -9 5 3 11 2 14 -2 2 -5 2 -3 1 4 -2
6 5 22 15 35 10 13 21 33 25 45 6 18 4 22 -8 17 -9 -4 -16 -1 -16 6 0 7 8 10
20 7 10 -3 21 0 24 7 2 6 2 -5 -1 -24 -3 -19 -10 -39 -14 -44 -5 -6 -9 -18 -9
-27 0 -27 -38 -104 -52 -104 -7 0 -13 -13 -13 -30 0 -21 -12 -42 -38 -68 -20
-21 -36 -46 -36 -55 1 -14 2 -14 6 1 5 19 30 17 25 -2 -1 -6 2 -11 7 -11 9 0
22 31 26 64 1 11 10 25 19 32 10 7 16 20 14 31 -2 10 2 17 8 16 7 -1 15 12 19
30 5 21 9 26 12 15 2 -9 -18 -70 -45 -135 -27 -65 -53 -129 -57 -143 -4 -14
-13 -38 -19 -55 -7 -16 -25 -68 -41 -115 -16 -47 -46 -119 -66 -160 l-38 -75
50 -47 c27 -26 77 -69 111 -94 51 -40 63 -45 79 -36 27 17 30 15 24 -11 -5
-18 0 -28 19 -40 33 -22 39 -21 30 5 -3 12 -8 58 -10 103 -2 44 -6 98 -9 120
-8 58 -11 195 -4 195 3 0 6 24 6 53 0 28 4 65 8 80 9 32 32 31 27 -1 -2 -12 2
-22 7 -22 6 0 11 -9 11 -20 0 -10 12 -31 27 -45 15 -14 24 -25 20 -25 -4 0 -2
-10 5 -23 13 -22 14 -28 21 -82 2 -16 7 -42 12 -57 4 -18 3 -28 -4 -28 -6 0
-8 -7 -5 -15 4 -8 12 -15 20 -15 8 0 14 -7 14 -15 0 -8 -6 -15 -12 -15 -9 0
-9 -3 1 -9 8 -5 11 -16 7 -26 -3 -10 -1 -24 5 -31 6 -8 9 -20 6 -27 -3 -7 1
-24 8 -36 10 -19 10 -29 -1 -50 -24 -51 -22 -93 4 -61 l18 23 11 -29 c6 -16
14 -42 18 -57 5 -24 18 -34 78 -62 103 -47 276 -101 419 -129 133 -27 318 -45
318 -30 -1 21 -17 31 -47 29 -21 -1 -34 4 -38 13 -9 23 3 27 25 7 18 -16 20
-16 35 -1 12 12 13 16 3 17 -7 1 -20 3 -28 4 -8 1 -21 3 -27 4 -19 2 -16 15 8
29 18 11 23 11 33 -4 8 -11 20 -15 30 -11 13 5 19 1 23 -12 3 -12 11 -17 19
-14 10 4 12 0 8 -11 -3 -9 -2 -16 4 -16 6 0 12 5 14 11 2 7 16 0 33 -16 21
-19 24 -25 11 -21 -16 6 -17 4 -6 -9 8 -10 16 -12 20 -6 4 7 17 8 39 1 69 -19
378 28 560 86 67 21 84 31 141 89 36 35 71 65 78 65 7 0 29 11 49 25 42 28 57
25 25 -5 -12 -12 -22 -26 -22 -32 0 -9 3 -9 11 -1 8 8 16 8 28 1 17 -11 63 9
185 80 130 76 316 234 450 383 571 633 695 1572 309 2343 -331 661 -975 1090
-1718 1146 -153 11 -172 11 -321 -1z m74 -869 c-27 -17 -51 -30 -55 -30 -5 0
7 10 24 21 18 12 30 25 27 30 -3 5 7 9 23 9 26 0 25 -2 -19 -30z m-148 -93 c0
-2 -10 -12 -22 -23 l-23 -19 19 23 c18 21 26 27 26 19z m-139 -130 c-78 -78
-117 -104 -104 -69 4 10 8 11 13 2 5 -8 12 -1 21 19 13 29 22 36 43 32 5 -1 6
5 3 13 -3 8 2 20 10 28 15 11 16 11 10 -6 -4 -11 11 -1 35 23 24 22 45 41 48
41 3 0 -33 -37 -79 -83z m359 68 c-7 -9 -10 -18 -6 -22 3 -3 6 -1 6 5 0 7 3
11 8 10 4 0 15 2 25 7 10 4 42 1 75 -9 35 -10 58 -12 60 -6 2 6 17 10 33 10
28 0 29 -2 29 -46 0 -27 4 -43 10 -39 6 3 10 -3 10 -14 0 -12 6 -21 14 -21 7
0 16 -9 19 -20 4 -14 10 -18 23 -13 11 4 15 2 11 -4 -4 -6 7 -11 26 -12 18 -1
37 -3 43 -3 5 -1 8 -14 6 -29 -4 -25 -1 -28 29 -31 27 -2 37 -10 51 -38 13
-29 18 -32 23 -17 10 23 24 22 18 -2 -3 -10 0 -22 6 -25 6 -4 11 -16 11 -27 0
-10 7 -19 15 -19 9 0 18 -13 22 -31 3 -17 12 -33 19 -36 6 -2 15 -16 18 -29 5
-20 11 -24 29 -19 21 6 21 5 4 -9 -18 -14 -18 -14 2 -21 18 -5 24 -20 20 -51
0 -3 8 -12 18 -20 17 -14 17 -15 -4 -9 -24 7 -32 -9 -10 -19 6 -3 -3 -3 -21 0
-19 3 -47 -2 -63 -10 -17 -8 -51 -18 -77 -22 -26 -3 -53 -11 -59 -16 -9 -7
-13 -7 -13 2 0 8 -3 10 -7 6 -5 -4 -8 -12 -8 -16 0 -5 -9 -16 -20 -25 -12 -9
-14 -14 -6 -13 8 2 16 -4 18 -14 3 -11 -5 -18 -27 -23 -22 -5 -30 -11 -26 -21
3 -9 1 -12 -4 -9 -6 3 -10 1 -10 -5 0 -6 -4 -9 -8 -6 -5 3 -14 -5 -19 -17 -26
-53 -53 -117 -53 -124 0 -3 -8 -15 -17 -26 -15 -16 -18 -40 -18 -161 1 -179
10 -395 19 -422 6 -15 -2 -30 -33 -63 -36 -38 -45 -43 -72 -37 -20 4 -28 2
-23 -5 15 -26 -87 27 -107 54 -3 5 -10 9 -15 9 -5 1 -24 7 -43 15 -18 8 -45
11 -61 8 -21 -5 -31 -2 -38 11 -5 9 -13 14 -18 11 -13 -7 -17 -67 -5 -67 5 0
12 -12 16 -27 4 -16 10 -22 12 -15 4 10 8 10 17 -2 6 -9 30 -17 53 -18 22 -2
39 -6 36 -10 -2 -5 3 -8 11 -8 19 0 21 -16 4 -23 -7 -3 -3 -6 8 -6 23 -1 47
21 50 46 5 29 13 24 36 -24 23 -44 27 -48 61 -48 47 -1 55 -10 71 -78 l13 -56
-41 -7 c-23 -4 -80 -7 -127 -5 -54 2 -89 -2 -94 -8 -3 -6 1 -11 9 -11 9 0 16
-5 16 -11 0 -5 -5 -7 -12 -3 -8 5 -9 2 -5 -9 9 -24 -10 -21 -23 3 -7 14 -18
19 -33 16 -12 -2 -40 -7 -62 -11 -22 -4 -48 -12 -59 -17 -12 -6 -22 -6 -28 0
-11 11 -69 -16 -103 -49 -15 -15 -17 -21 -7 -31 19 -19 14 -29 -9 -16 -17 11
-23 10 -37 -8 -23 -27 -72 -41 -72 -19 0 8 -12 21 -28 29 -15 8 -35 32 -45 55
-10 22 -32 54 -48 71 -17 16 -27 35 -24 40 4 6 -1 23 -11 38 -10 15 -17 37
-16 48 2 12 -3 24 -11 27 -8 3 -20 26 -28 51 -7 25 -16 46 -20 46 -3 0 -9 19
-12 42 -3 24 -11 44 -16 46 -6 2 -8 9 -4 15 9 14 7 92 -2 108 -4 6 -2 15 6 19
10 7 10 14 1 34 -9 20 -9 26 1 26 9 0 9 2 0 8 -7 4 -13 37 -15 80 -1 41 -5 75
-9 77 -3 3 -7 24 -8 47 -1 24 -2 52 -4 63 -1 12 3 19 11 18 6 -2 12 3 12 11 0
20 21 25 45 12 25 -14 35 -28 29 -38 -3 -4 2 -8 10 -8 9 0 16 4 16 9 0 5 9 7
20 4 21 -6 28 -23 9 -23 -5 0 -8 -4 -5 -9 6 -9 60 -21 112 -24 17 -1 30 -7 27
-12 -2 -6 6 -11 17 -11 11 0 20 4 20 7 0 4 15 3 32 -2 42 -11 142 -14 158 -4
9 5 11 4 6 -3 -9 -15 -6 -15 38 3 20 8 38 15 41 15 22 -1 55 15 55 27 0 8 4
12 9 9 5 -4 7 3 4 14 -4 14 0 20 11 20 9 0 16 8 16 19 0 11 5 23 10 26 6 4 8
11 5 16 -4 5 1 9 10 9 9 0 14 4 10 9 -3 5 -1 12 4 15 6 4 6 18 1 36 -12 40 4
47 34 15 29 -31 44 -17 16 15 -10 12 -16 28 -13 36 3 8 0 14 -6 14 -6 0 -8 6
-5 14 6 14 -22 30 -37 20 -14 -8 -11 -36 4 -28 6 4 9 4 5 0 -3 -4 -9 -7 -13
-6 -3 0 -13 -6 -21 -15 -12 -11 -20 -12 -35 -5 -10 6 -19 16 -19 22 0 7 -6 4
-13 -6 -12 -17 -16 -16 -61 8 -57 30 -134 34 -230 11 -67 -16 -64 -5 4 18 38
13 111 22 143 18 4 -1 8 0 10 0 1 1 21 -8 45 -20 23 -12 42 -17 42 -11 0 6 20
9 45 8 25 0 45 -6 45 -11 0 -5 7 -4 15 3 8 7 15 19 15 26 0 8 4 14 9 14 5 0
13 9 16 20 4 11 12 20 18 19 38 -5 52 26 23 50 -12 10 -13 8 -9 -10 4 -15 3
-20 -5 -15 -7 4 -12 13 -12 20 0 8 -7 19 -15 26 -13 11 -13 15 -3 23 9 6 8 7
-5 3 -10 -3 -20 0 -23 8 -3 8 -22 18 -42 22 -40 8 -40 8 -62 17 -34 13 -138
14 -174 2 -37 -13 -37 -13 -19 7 18 21 18 21 -7 7 -32 -17 -49 -19 -56 -8 -3
5 5 9 18 10 l23 0 -23 10 c-13 5 -28 7 -32 4 -5 -3 -11 -1 -14 3 -8 14 -86 -3
-86 -18 0 -4 -8 -11 -17 -15 -21 -8 -74 -17 -56 -9 10 4 10 11 2 25 -5 11 -14
17 -19 14 -5 -3 -4 8 1 25 6 16 15 33 20 36 14 8 11 26 -3 18 -7 -4 -3 3 10
15 12 12 22 26 22 31 0 5 11 20 25 34 14 14 20 26 13 28 -6 2 1 16 16 32 27
30 33 42 16 31 -15 -9 -12 2 6 24 10 11 23 17 30 14 8 -3 14 -1 14 5 0 6 -6
13 -12 15 -8 3 -5 6 6 6 12 1 16 6 13 15 -4 11 -1 13 10 9 11 -4 14 -2 9 5 -4
7 -3 12 2 12 12 0 54 41 48 47 -3 3 -14 0 -23 -7 -10 -8 -7 -2 7 12 14 14 28
24 32 22 4 -3 9 0 13 5 3 6 11 9 18 7 7 -1 9 -1 5 1 -15 8 -8 23 10 23 10 0
27 8 38 18 10 10 35 24 54 32 19 7 41 18 49 24 8 6 25 9 39 8 15 -3 22 0 18 7
-9 14 37 25 69 17 14 -4 25 -2 25 3 0 5 8 12 18 14 9 3 19 5 21 6 2 0 -2 -6
-9 -14z m-320 1 c0 -2 -8 -10 -17 -17 -16 -13 -17 -12 -4 4 13 16 21 21 21 13z
m-154 -188 c4 -7 4 -10 -1 -6 -4 4 -14 3 -22 -3 -13 -11 -19 2 -6 14 10 11 21
8 29 -5z m961 -90 c-3 -8 -6 -5 -6 6 -1 11 2 17 5 13 3 -3 4 -12 1 -19z m60
-60 c-3 -8 -6 -5 -6 6 -1 11 2 17 5 13 3 -3 4 -12 1 -19z m-1641 -250 c-21
-12 -42 4 -32 21 5 8 13 8 28 0 20 -11 20 -12 4 -21z m81 -70 c-2 -13 -4 -3
-4 22 0 25 2 35 4 23 2 -13 2 -33 0 -45z m567 17 c11 -8 31 -15 45 -16 l26 -1
-29 -10 c-20 -7 -30 -7 -35 0 -4 6 -12 7 -20 3 -10 -6 -8 -10 6 -15 10 -3 28
-12 41 -20 19 -11 20 -14 7 -20 -9 -3 -18 0 -22 9 -4 11 -14 14 -38 9 -30 -5
-33 -4 -37 24 -2 16 -2 34 0 40 5 16 33 14 56 -3z m-280 -37 c-4 -13 -17 -59
-29 -103 -19 -70 -23 -76 -27 -48 -2 18 -1 30 4 27 4 -3 8 2 8 12 0 19 40 134
47 134 2 0 1 -10 -3 -22z m1226 18 c0 -2 -9 -6 -20 -9 -11 -3 -20 -1 -20 4 0
5 9 9 20 9 11 0 20 -2 20 -4z m-542 -52 c-4 -3 -12 5 -18 18 -12 22 -12 22 6
6 10 -10 15 -20 12 -24z m492 32 c0 -2 -8 -10 -17 -17 -16 -13 -17 -12 -4 4
13 16 21 21 21 13z m-1463 -58 c-2 -13 -4 -5 -4 17 -1 22 1 32 4 23 2 -10 2
-28 0 -40z m517 14 c6 -4 20 -7 31 -8 85 -3 100 -6 80 -13 -11 -5 -23 -7 -27
-4 -5 2 -8 0 -8 -5 0 -8 -66 -45 -85 -46 -22 -3 -55 -18 -55 -26 0 -4 -8 -6
-19 -3 -10 3 -22 0 -25 -6 -4 -6 -12 -11 -17 -11 -6 0 -1 16 11 35 20 33 20
35 3 35 -14 0 -15 2 -5 9 8 4 14 12 15 17 1 5 10 9 19 8 9 0 15 3 12 8 -3 4 0
8 5 8 6 0 11 5 11 11 0 5 -5 7 -12 3 -7 -4 -8 -3 -4 4 6 11 41 3 70 -16z m146
14 c0 -3 -4 -8 -10 -11 -5 -3 -10 -1 -10 4 0 6 5 11 10 11 6 0 10 -2 10 -4z
m-580 -168 l-5 -83 -3 69 c-3 61 1 96 10 96 2 0 1 -37 -2 -82z m748 70 c8 -1
9 -5 3 -11 -5 -5 -20 -2 -37 8 -27 15 -27 16 -4 10 14 -4 31 -7 38 -7z m86 4
c2 -4 -5 -9 -17 -9 -17 -2 -19 0 -7 7 18 12 18 12 24 2z m-957 -94 c-2 -18 -4
-6 -4 27 0 33 2 48 4 33 2 -15 2 -42 0 -60z m59 -24 c3 -43 7 -84 9 -91 2 -7
0 -15 -5 -18 -6 -4 -10 8 -10 27 0 18 -3 65 -6 103 -4 39 -4 67 0 64 3 -3 9
-42 12 -85z m777 64 c22 -11 37 -22 34 -24 -3 -3 -19 2 -37 11 -18 9 -34 14
-38 11 -3 -3 -11 -1 -18 5 -8 6 -20 9 -29 6 -8 -4 -17 -2 -20 4 -11 17 67 7
108 -13z m-563 -26 c0 -8 -1 -13 -3 -11 -1 2 -9 12 -16 22 -12 15 -12 17 3 11
9 -3 16 -13 16 -22z m1441 11 c7 -7 -4 -9 -35 -6 -57 7 -122 -11 -182 -48 -52
-33 -64 -37 -41 -11 10 10 14 22 10 27 -5 4 0 5 9 2 9 -3 22 1 29 9 29 36 182
55 210 27z m-45 -23 c13 0 24 -4 24 -10 0 -5 -12 -10 -27 -10 -25 0 -26 -1 -8
-14 17 -12 15 -14 -26 -20 -24 -4 -78 -22 -119 -41 -41 -19 -76 -33 -77 -31
-10 10 15 41 60 73 52 39 112 64 135 57 8 -2 25 -4 38 -4z m-1426 -15 c0 -2
-9 -9 -20 -15 -12 -6 -20 -7 -20 -1 0 5 8 12 18 14 9 3 18 5 20 6 1 0 2 -1 2
-4z m11 -36 c-5 -13 -10 -19 -10 -12 -1 15 10 45 15 40 3 -2 0 -15 -5 -28z
m612 -25 c42 -30 46 -37 36 -55 -6 -11 -8 -23 -5 -27 3 -3 6 1 6 8 0 7 3 10 7
7 3 -4 12 -2 20 5 10 8 17 8 25 0 7 -7 -2 -14 -33 -21 -24 -7 -69 -18 -100
-26 -81 -22 -145 -19 -205 9 -29 13 -56 31 -60 39 -5 8 -16 17 -24 21 -8 3 -2
4 13 1 17 -4 26 -2 23 4 -6 9 48 61 65 61 5 0 9 -14 9 -30 0 -68 86 -104 140
-59 18 16 25 31 25 60 0 21 2 39 5 39 3 0 26 -16 53 -36z m-103 22 c0 -2 -7
-6 -15 -10 -8 -3 -15 -1 -15 4 0 6 7 10 15 10 8 0 15 -2 15 -4z m-540 -27 c0
-6 -4 -7 -10 -4 -5 3 -10 11 -10 16 0 6 5 7 10 4 6 -3 10 -11 10 -16z m490 7
c0 -8 -4 -17 -9 -21 -12 -7 -24 12 -16 25 9 15 25 12 25 -4z m-713 -58 c-2
-13 -4 -5 -4 17 -1 22 1 32 4 23 2 -10 2 -28 0 -40z m222 -39 c-34 -121 -48
-190 -50 -254 l-2 -60 -7 65 c-4 36 -4 66 1 68 5 2 9 15 9 29 0 14 9 56 19 92
11 36 25 86 32 111 6 25 14 40 16 34 2 -6 -6 -45 -18 -85z m1349 61 c-18 -28
0 -70 39 -92 29 -17 34 -18 67 -4 38 16 52 46 44 91 -3 14 -3 25 -1 25 16 0
44 -25 57 -51 37 -74 8 -109 -89 -109 -34 1 -83 9 -115 21 -30 11 -71 25 -90
30 -19 6 -42 18 -50 26 -13 14 -12 15 12 11 17 -3 25 -1 22 7 -5 11 80 64 104
65 10 0 10 -4 0 -20z m92 6 c0 -2 -7 -6 -15 -10 -8 -3 -15 -1 -15 4 0 6 7 10
15 10 8 0 15 -2 15 -4z m-52 -23 c-5 -25 -28 -28 -28 -4 0 12 6 21 16 21 9 0
14 -7 12 -17z m-1408 -3 c0 -5 -5 -10 -11 -10 -5 0 -7 5 -4 10 3 6 8 10 11 10
2 0 4 -4 4 -10z m-126 -52 c-3 -4 2 -36 10 -70 22 -93 29 -134 22 -127 -8 8
-46 178 -46 209 0 19 2 22 9 10 6 -8 8 -18 5 -22z m-51 -63 c4 -26 4 -33 -2
-20 -5 11 -11 40 -15 65 -7 54 8 16 17 -45z m1474 23 c40 -13 75 -28 77 -34 5
-14 -152 40 -168 57 -8 8 -7 10 4 6 8 -3 48 -16 87 -29z m-22 -38 c-3 -5 0 -7
8 -4 8 3 21 -2 30 -10 9 -9 20 -16 26 -16 6 0 11 -5 11 -11 0 -6 9 -9 20 -6
11 3 18 2 15 -3 -3 -4 2 -13 11 -20 12 -11 12 -15 2 -21 -20 -13 -28 -10 -22
9 5 16 5 16 -6 0 -6 -10 -17 -15 -27 -11 -11 4 -14 3 -9 -5 4 -7 5 -12 1 -12
-8 0 -29 53 -26 68 2 10 -18 17 -41 13 -4 0 -12 8 -18 19 -9 17 -8 20 10 20
12 0 18 -4 15 -10z m163 -97 c-9 -2 -15 -10 -12 -18 3 -7 1 -16 -5 -20 -6 -3
-11 2 -11 13 0 23 9 32 29 31 13 -1 13 -2 -1 -6z m-1584 -19 c3 -8 2 -12 -4
-9 -6 3 -10 10 -10 16 0 14 7 11 14 -7z m1616 -8 c0 -3 -4 -8 -10 -11 -5 -3
-10 -1 -10 4 0 6 5 11 10 11 6 0 10 -2 10 -4z m-1521 -114 c17 -51 31 -107 31
-124 0 -37 -10 -32 -15 8 -2 16 -4 30 -4 32 -1 2 -8 -4 -17 -12 -13 -14 -17
-14 -30 -2 -25 26 -12 44 29 37 11 -2 9 11 -13 74 -18 53 -26 95 -16 84 2 -2
18 -46 35 -97z m-72 61 c1 -22 -1 -24 -8 -10 -6 9 -7 22 -4 27 9 14 10 13 12
-17z m-73 -34 c-3 -5 -12 -9 -20 -9 -14 0 -20 31 -7 44 9 9 34 -24 27 -35z
m-77 9 c-3 -8 -6 -5 -6 6 -1 11 2 17 5 13 3 -3 4 -12 1 -19z m1648 -8 c7 0 16
6 19 13 3 6 4 1 3 -13 -1 -14 -8 -24 -14 -23 -7 1 -9 -6 -5 -19 l5 -22 8 22
c5 12 15 22 24 22 8 0 15 4 15 9 0 5 9 11 20 14 11 3 20 1 20 -4 0 -5 -7 -9
-15 -9 -8 0 -15 -4 -15 -10 0 -5 3 -10 8 -10 4 0 12 -11 19 -25 6 -14 7 -25 2
-25 -5 0 -9 -7 -9 -15 0 -8 7 -15 16 -15 8 0 12 -5 9 -10 -4 -6 -11 -8 -16 -5
-5 4 -9 4 -9 0 0 -3 12 -10 27 -16 22 -8 24 -12 13 -19 -12 -8 -9 -10 10 -10
14 0 20 -4 15 -8 -6 -4 -11 -28 -10 -54 0 -34 -5 -51 -18 -60 -15 -11 -16 -19
-8 -40 8 -20 7 -28 -4 -32 -13 -5 -15 -41 -3 -61 3 -6 -9 -25 -27 -43 l-32
-32 -37 40 c-20 22 -43 40 -51 40 -8 0 -15 6 -15 14 0 10 -10 14 -36 11 -32
-2 -35 0 -29 19 7 18 21 159 24 224 1 13 6 20 11 17 6 -3 10 -1 10 4 0 6 -4
11 -10 11 -5 0 -10 9 -10 20 0 11 5 20 10 20 6 0 10 -5 10 -12 0 -6 3 -8 7 -4
5 4 0 13 -9 20 -11 8 -15 20 -11 35 4 17 8 19 14 9 7 -10 9 -9 9 5 0 9 5 17
11 17 5 0 7 -6 3 -12 -4 -7 -4 -10 1 -6 4 4 15 2 24 -5 14 -10 14 -10 4 4 -7
8 -9 25 -5 40 5 18 7 20 10 7 2 -10 10 -18 17 -18z m135 -10 c0 -25 -4 -30
-22 -30 -21 1 -22 2 -5 14 9 7 17 21 17 30 0 9 2 16 5 16 3 0 5 -13 5 -30z
m-1601 -30 c0 -9 -4 -8 -9 5 -5 11 -9 27 -9 35 0 9 4 8 9 -5 5 -11 9 -27 9
-35z m-114 -21 c6 -24 1 -73 -10 -109 -1 -3 -5 -23 -10 -45 -4 -22 -14 -49
-21 -59 -12 -17 -13 -15 -7 20 3 21 9 44 14 50 4 5 6 19 3 30 -3 12 1 26 10
33 9 8 16 21 16 29 0 12 -3 13 -12 4 -17 -17 -31 -15 -25 2 3 8 1 17 -6 20 -7
3 2 3 18 0 17 -3 25 -2 19 3 -14 11 -24 39 -17 47 13 13 22 5 28 -25z m162
-141 c9 -44 8 -49 -3 -33 -8 10 -14 27 -14 36 0 10 -3 24 -6 33 -3 9 -2 16 3
16 5 0 14 -23 20 -52z m-27 22 c0 -5 -4 -10 -10 -10 -5 0 -10 5 -10 10 0 6 5
10 10 10 6 0 10 -4 10 -10z m13 -89 c-6 -9 -13 6 -18 40 l-6 34 14 -35 c7 -19
12 -37 10 -39z m-459 8 c-8 -14 -24 -10 -24 6 0 9 6 12 15 9 8 -4 12 -10 9
-15z m1386 0 c11 -20 11 -20 -17 -3 -15 10 -30 19 -32 21 -2 2 5 3 17 3 12 0
26 -9 32 -21z m-1423 5 c-3 -3 -12 -4 -19 -1 -8 3 -5 6 6 6 11 1 17 -2 13 -5z
m-17 -39 c0 -8 0 -18 1 -22 0 -4 -3 -9 -8 -10 -5 -2 -10 8 -11 22 -1 14 3 25
8 25 6 0 10 -7 10 -15z m50 0 c0 -8 -4 -15 -10 -15 -5 0 -10 7 -10 15 0 8 5
15 10 15 6 0 10 -7 10 -15z m484 -35 c-7 -6 -24 22 -23 40 0 9 6 5 14 -10 7
-14 11 -27 9 -30z m36 -108 c0 -7 4 -10 10 -7 6 3 7 -1 4 -10 -4 -9 1 -22 12
-31 11 -9 13 -12 5 -8 -10 5 -11 1 -6 -17 4 -13 5 -22 2 -18 -7 6 -67 171 -66
179 1 9 38 -75 39 -88z m-50 33 c0 -5 -5 -3 -10 5 -5 8 -10 20 -10 25 0 6 5 3
10 -5 5 -8 10 -19 10 -25z m-305 -5 c-3 -5 -10 -10 -16 -10 -5 0 -9 5 -9 10 0
6 7 10 16 10 8 0 12 -4 9 -10z m1225 -114 c0 -2 -7 -7 -16 -10 -8 -3 -12 -2
-9 4 6 10 25 14 25 6z m-86 -32 c9 -23 2 -28 -22 -15 -11 6 -21 9 -23 8 -2 -1
2 4 10 11 20 16 28 15 35 -4z m-726 -20 c0 -17 -3 -22 -8 -13 -5 6 -6 18 -3
26 8 19 11 16 11 -13z m20 -41 c-1 -5 4 -19 11 -31 7 -13 10 -26 8 -28 -3 -3
-12 9 -21 27 -19 38 -19 39 -6 39 6 0 9 -3 8 -7z m-70 -48 c-3 -3 -9 2 -12 12
-6 14 -5 15 5 6 7 -7 10 -15 7 -18z m672 21 c0 -3 -4 -8 -10 -11 -5 -3 -10 -1
-10 4 0 6 5 11 10 11 6 0 10 -2 10 -4z m370 -14 c46 -6 55 -10 55 -27 0 -13
-6 -20 -17 -19 -10 1 -18 -5 -18 -13 0 -8 -4 -11 -10 -8 -5 3 -10 0 -10 -8 0
-18 -35 -28 -48 -15 -6 6 -16 7 -22 3 -9 -6 -9 -10 1 -16 10 -6 11 -9 2 -9 -7
0 -13 -10 -13 -22 0 -19 -2 -20 -10 -8 -5 8 -10 29 -10 47 0 29 -2 31 -27 24
-23 -7 -28 -13 -26 -37 2 -22 0 -25 -7 -14 -5 8 -10 22 -10 32 0 11 -6 15 -20
11 -11 -3 -23 -9 -26 -14 -3 -5 3 -6 12 -2 11 4 15 3 11 -4 -4 -6 -1 -13 5
-16 7 -2 10 -7 7 -11 -11 -12 -60 17 -74 43 -8 14 -14 20 -15 13 0 -22 -20 -2
-20 21 0 18 -2 19 -10 7 -8 -13 -10 -13 -10 2 0 22 -20 34 -30 18 -5 -8 -9 -5
-13 9 -4 16 1 21 22 24 35 5 263 -2 331 -11z m-436 -21 c15 -16 15 -19 1 -31
-13 -11 -14 -15 -1 -29 20 -23 5 -54 -27 -55 -16 -1 -27 4 -27 11 0 7 -5 13
-11 13 -8 0 -8 4 0 14 14 17 -11 42 -31 30 -14 -8 -14 -7 22 35 29 35 50 38
74 12z m-144 -1 c0 -5 -4 -10 -10 -10 -5 0 -10 5 -10 10 0 6 5 10 10 10 6 0
10 -4 10 -10z m257 -32 c-3 -7 -5 -2 -5 12 0 14 2 19 5 13 2 -7 2 -19 0 -25z
m-27 -8 c0 -5 -8 -10 -17 -10 -15 0 -16 2 -3 10 19 12 20 12 20 0z m-566 -16
c3 -8 2 -12 -4 -9 -6 3 -10 10 -10 16 0 14 7 11 14 -7z m625 -21 c11 3 19 1
16 -3 -3 -5 1 -11 7 -13 7 -3 4 -6 -7 -6 -24 -1 -78 33 -69 42 4 4 12 -1 19
-10 8 -10 20 -14 34 -10z m251 -27 c0 -2 -7 -6 -15 -10 -8 -3 -15 -1 -15 4 0
6 7 10 15 10 8 0 15 -2 15 -4z m-1609 -49 c-8 -8 -11 -3 -11 19 1 25 2 27 11
11 8 -14 8 -22 0 -30z m1241 -19 c4 -10 10 -10 29 -1 19 8 34 8 65 -3 21 -8
56 -14 77 -14 39 0 130 -24 157 -41 8 -5 23 -12 33 -15 9 -4 16 -14 15 -23 -2
-9 7 -20 20 -26 12 -5 20 -16 17 -22 -2 -7 0 -13 5 -13 15 0 12 -58 -5 -90
-19 -37 -72 -53 -175 -53 -97 1 -160 12 -167 29 -3 8 -15 14 -27 14 -16 0 -18
2 -7 9 10 6 5 11 -18 16 -48 10 -110 83 -99 116 3 8 -1 20 -9 27 -18 18 9 57
40 57 15 0 23 7 25 23 4 24 18 30 24 10z m-42 -8 c0 -5 -4 -10 -10 -10 -5 0
-10 5 -10 10 0 6 5 10 10 10 6 0 10 -4 10 -10z m-1210 -55 c-6 -16 -8 -35 -5
-43 3 -8 1 -20 -4 -26 -5 -6 -11 -24 -14 -41 -2 -16 -4 1 -4 38 1 38 4 70 9
73 4 3 8 15 8 27 0 14 3 18 10 11 8 -8 7 -20 0 -39z m610 25 c0 -5 -4 -10 -10
-10 -5 0 -10 5 -10 10 0 6 5 10 10 10 6 0 10 -4 10 -10z m150 -554 c0 -11 -19
-15 -25 -6 -3 5 1 10 9 10 9 0 16 -2 16 -4z m1676 -93 c-10 -10 -19 5 -10 18
6 11 8 11 12 0 2 -7 1 -15 -2 -18z m-1212 -79 c4 -12 13 -14 31 -10 18 5 24 3
23 -6 -2 -7 5 -12 14 -12 14 1 16 -2 7 -17 -5 -11 -19 -19 -31 -19 -16 0 -18
-3 -9 -14 9 -10 8 -15 -3 -19 -8 -3 -17 1 -20 9 -3 8 -13 14 -23 14 -14 1 -11
6 12 25 l30 25 -27 0 c-16 0 -28 -4 -28 -10 0 -5 -7 -10 -15 -10 -8 0 -15 5
-15 10 0 6 7 10 16 10 11 0 15 6 11 20 -6 24 18 28 27 4z"/>
<path d="M2100 2477 c0 -13 24 -57 31 -57 11 0 -1 38 -17 51 -8 6 -14 9 -14 6z"/>
<path d="M1921 2321 c-10 -6 -10 -10 -1 -16 13 -8 24 -1 19 14 -3 6 -10 7 -18
2z"/>
<path d="M2158 1314 c23 -10 42 -12 65 -6 l32 9 -35 6 c-19 2 -48 5 -65 5
l-30 -1 33 -13z"/>
<path d="M1485 2360 c-3 -5 -2 -10 4 -10 5 0 13 5 16 10 3 6 2 10 -4 10 -5 0
-13 -4 -16 -10z"/>
<path d="M2655 1740 c3 -5 8 -10 11 -10 2 0 4 5 4 10 0 6 -5 10 -11 10 -5 0
-7 -4 -4 -10z"/>
<path d="M2717 1577 c-3 -8 -2 -20 3 -26 5 -9 8 -4 8 13 0 29 -3 32 -11 13z"/>
<path d="M2510 1420 c0 -5 5 -10 10 -10 6 0 10 5 10 10 0 6 -4 10 -10 10 -5 0
-10 -4 -10 -10z"/>
<path d="M737 1300 c3 -11 7 -20 9 -20 2 0 4 9 4 20 0 11 -4 20 -9 20 -5 0 -7
-9 -4 -20z"/>
<path d="M830 1239 c0 -5 5 -7 10 -4 6 3 10 8 10 11 0 2 -4 4 -10 4 -5 0 -10
-5 -10 -11z"/>
<path d="M800 1015 c-11 -13 -10 -14 4 -9 9 3 16 10 16 15 0 13 -6 11 -20 -6z"/>
<path d="M724 946 c3 -18 1 -23 -10 -19 -8 3 -14 11 -14 19 0 8 -7 14 -16 14
-13 0 -15 -6 -9 -27 4 -16 8 -42 9 -60 2 -51 16 -51 16 1 0 31 4 45 11 41 6
-4 8 -13 5 -21 -3 -7 5 -26 18 -41 l24 -28 -5 27 c-4 20 -1 30 11 34 9 3 16
11 16 16 0 6 -6 8 -14 5 -15 -6 -26 12 -26 44 0 10 -5 19 -10 19 -6 0 -8 -11
-6 -24z"/>
<path d="M660 833 c0 -21 3 -24 9 -14 5 8 7 20 4 28 -8 21 -13 15 -13 -14z"/>
<path d="M710 843 c0 -5 7 -18 15 -29 15 -18 15 -18 13 5 -3 23 -28 44 -28 24z"/>
<path d="M710 772 c0 -10 -3 -22 -7 -26 -4 -3 -7 -15 -8 -27 -1 -11 2 -16 6
-12 10 10 23 83 15 83 -3 0 -6 -8 -6 -18z"/>
<path d="M676 675 c-3 -8 -1 -15 4 -15 6 0 10 7 10 15 0 8 -2 15 -4 15 -2 0
-6 -7 -10 -15z"/>
<path d="M647 633 c-12 -12 -7 -22 8 -17 8 4 15 10 15 15 0 11 -14 12 -23 2z"/>
<path d="M985 410 c3 -5 8 -10 11 -10 2 0 4 5 4 10 0 6 -5 10 -11 10 -5 0 -7
-4 -4 -10z"/>
<path d="M2010 21 c0 -5 7 -12 16 -15 14 -5 15 -4 4 9 -14 17 -20 19 -20 6z"/>
</g>
</svg>
